# xmcd
#
# Track frame offsets: 
#        150
#        14400
#        30975
#        34275
#        48600
#        61575
#        71550
#        84000
#        102075
#        105900
#        122025
#        125025
#        142725
#        147600
#        163500
#        170550
#        181800
#        185325
#        198450
#        216600
#        229875
#        245325
#        263475
#
# Disc length: 3545 seconds
#
# Revision: 0
# Processed by: cddbd v1.5.2PL0 Copyright (c) Steve Scherf et al.
# Submitted via: ExactAudioCopy v0.95a4
#
DISCID=3d0dd717
DTITLE=Emmylou Harris - The Catalyst - Santa Cruz CA 6-15-79
DYEAR=1979
DGENRE=Country
TTITLE0=To Daddy
TTITLE1=My Songbird
TTITLE2=Band Intros
TTITLE3=If I Could Only Win Your Love
TTITLE4=The Angels Rejoiced in Heaven Last Night
TTITLE5=Talk
TTITLE6=Could You Love Me One More Time?
TTITLE7=Green Rolling Hills
TTITLE8=Talk 2
TTITLE9=Land That Lies Up Yonder
TTITLE10=Talk 3
TTITLE11=If I Needed You
TTITLE12=Talk 4
TTITLE13=Satan's Jeweled Crown
TTITLE14=Talk 5
TTITLE15=Keep On the Sunny Side of Life
TTITLE16=Talk 6
TTITLE17=Bury Me Beneath the Willow
TTITLE18=Sleepless Nights
TTITLE19=Canaan's Land
TTITLE20=Here There and Everywhere
TTITLE21=Leaving Louisiana in the Broad Daylight
TTITLE22=Final Thanks and Crowd
EXTD=
EXTT0=
EXTT1=
EXTT2=
EXTT3=
EXTT4=
EXTT5=
EXTT6=
EXTT7=
EXTT8=
EXTT9=
EXTT10=
EXTT11=
EXTT12=
EXTT13=
EXTT14=
EXTT15=
EXTT16=
EXTT17=
EXTT18=
EXTT19=
EXTT20=
EXTT21=
EXTT22=
PLAYORDER=
